#!OML:ASF E:\emotionWalksFemale\Project 1\Capture day 1\Session 1\Female1.ASF
:FULLY-SPECIFIED
:DEGREES
290
root 10.4479 15.617 11.4432 14.7519 -84.5168 -11.4462
lowerback 7.7589 1.2065 1.56621
upperback -4.3346 1.85387 0.980672
thorax -8.93735 0.828787 -0.122249
lowerneck -6.27487 -4.28362 -8.4037
upperneck 8.41356 -5.33068 4.09348
head 3.87353 -2.71746 2.31881
rclavicle 6.92019e-015 2.38542e-015
rhumerus -48.1605 -4.17068 -71.9802
rradius 33.6869
rwrist 28.7248
rhand -4.77126 -54.3964
rfingers 7.12502
rthumb 21.0132 -443.278
lclavicle 6.92019e-015 2.38542e-015
lhumerus -51.6726 13.8082 63.8316
lradius 35.9159
lwrist -14.8892
lhand -9.78438 -30.9454
lfingers 7.12502
lthumb 16.1913 -1.60156
rfemur -0.711367 20.3286 28.4834
rtibia 10.7975
rfoot -20.3538 -29.6539
rtoes -1.17336
lfemur -10.6304 -21.759 -23.2109
ltibia 27.0473
lfoot -23.0325 16.8387
ltoes -10.0297
291
root 10.4515 15.6084 11.4415 12.6701 -84.4148 -9.69221
lowerback 7.94528 1.25809 1.42353
upperback -4.15021 1.90208 0.859052
thorax -8.84552 0.859881 -0.181351
lowerneck -6.72225 -4.43605 -7.93977
upperneck 8.87607 -5.54465 3.96505
head 4.08492 -2.81457 2.17937
rclavicle 1.49461e-014 4.96962e-015
rhumerus -48.3584 -3.40072 -73.0212
rradius 34.4414
rwrist 26.6738
rhand -3.92781 -54.6798
rfingers 7.12502
rthumb 21.8233 -443.469
lclavicle 1.49461e-014 4.96962e-015
lhumerus -51.2784 14.8389 63.1871
lradius 35.4408
lwrist -15.7861
lhand -10.0792 -29.9882
lfingers 7.12502
lthumb 15.9074 -0.621529
rfemur -0.488781 20.6983 28.492
rtibia 11.2135
rfoot -21.1953 -29.8298
rtoes 0.994331
lfemur -10.2845 -21.3871 -23.5172
ltibia 26.8288
lfoot -21.5066 18.1549
ltoes -21.2067
292
root 10.4512 15.6043 11.4385 11.7139 -84.3985 -9.05
lowerback 8.0213 1.2755 1.35013
upperback -4.03056 1.91378 0.797079
thorax -8.75987 0.869946 -0.208309
lowerneck -6.76296 -4.4935 -7.633
upperneck 9.19491 -5.65881 3.93177
head 4.18574 -2.86607 2.10953
rclavicle 2.03754e-015 5.96354e-016
rhumerus -48.0803 -7.98224 -70.609
rradius 33.7553
rwrist 30.9301
rhand -2.94667 -53.4255
rfingers 7.12502
rthumb 22.7651 -442.102
lclavicle 2.03754e-015 5.96354e-016
lhumerus -51.2271 15.969 62.4371
lradius 35.0652
lwrist -16.6249
lhand -10.0514 -29.1265
lfingers 7.12502
lthumb 15.9342 0.238067
rfemur -0.309784 21.0275 28.6006
rtibia 11.6975
rfoot -22.0154 -29.9889
rtoes 3.40448
lfemur -9.84838 -21.2465 -23.6722
ltibia 26.5653
lfoot -20.7648 18.7483
ltoes -26.6191
293
root 10.4489 15.6021 11.4343 11.0456 -84.4065 -8.5867
lowerback 7.99854 1.24711 1.25935
upperback -3.97694 1.8624 0.769788
thorax -8.69058 0.850516 -0.1773
lowerneck -6.78669 -4.47981 -7.63107
upperneck 9.59495 -5.67938 4.17441
head 4.31963 -2.86861 2.17895
rclavicle -3.57812e-015 -1.0138e-014
rhumerus -48.0479 -7.85483 -71.0029
rradius 33.9927
rwrist 30.0706
rhand -2.50608 -53.6476
rfingers 7.12502
rthumb 23.1879 -442.272
lclavicle -3.57812e-015 -1.0138e-014
lhumerus -51.6053 16.9884 61.8491
lradius 35.1216
lwrist -17.0801
lhand -9.93828 -28.3019
lfingers 7.12502
lthumb 16.0431 1.05387
rfemur -0.287785 21.1074 28.6668
rtibia 12.1899
rfoot -22.331 -30.086
rtoes 4.60189
lfemur -9.46678 -21.2142 -23.707
ltibia 26.2679
lfoot -20.9901 18.4433
ltoes -26.638
294
root 10.4477 15.6029 11.4305 9.97069 -84.3968 -7.6457
lowerback 8.02027 1.20728 1.07341
upperback -3.97915 1.79026 0.800759
thorax -8.71301 0.827023 -0.0296797
lowerneck -6.91383 -4.46371 -7.92414
upperneck 10.1228 -5.67824 4.55622
head 4.52149 -2.86322 2.33737
rclavicle -1.33434e-014 -3.97569e-016
rhumerus -48.4732 -3.31379 -74.004
rradius 35.3921
rwrist 24.1303
rhand -2.584 -54.9031
rfingers 7.12502
rthumb 23.1132 -443.537
lclavicle -1.33434e-014 -3.97569e-016
lhumerus -52.1131 17.7738 61.6037
lradius 35.4013
lwrist -16.9921
lhand -9.40007 -27.6912
lfingers 7.12502
lthumb 16.5613 1.6221
rfemur -0.279831 21.204 28.6361
rtibia 12.5823
rfoot -22.5672 -29.9561
rtoes 6.1511
lfemur -9.16832 -21.1575 -23.7602
ltibia 25.9772
lfoot -21.5874 17.8249
ltoes -24.3906
